# Created by Kenney (www.kenney.nl)

mtllib craft_speederC.mtl

g craft_speederC

v -0.8 0.2 -0.3628353
v -0.8 0.2 -0.2628353
v -1.4 0.2 -0.3628353
v -0.5999999 0.2 -0.06283534
v -0.5999999 0.2 -0.2628353
v 0.6 0 -0.06283534
v 0.6 0.2 -0.06283534
v 1.4 0.1 -0.3628353
v 1.4 0.2 -0.3628353
v 0.6 0 -0.3128352
v 0.8 0.2 -0.2628353
v 0.8 0.2 -0.3628353
v 0.6 0.2 -0.2628353
v 0.2 0.08344824 0.9628353
v 0.2 0 0.4371647
v -0.2 0.08344824 0.9628353
v -0.2 0 0.4371647
v 0.2 0.1668965 0.9628353
v -0.2 0.1668965 0.9628353
v 0.2 0.6 0.03716469
v 0.2 0.5900496 0.2366685
v -0.2 0.6 0.03716469
v -0.2 0.5900496 0.2366685
v -0.2 0.4 0.4371647
v -0.2 0.4 0.03716469
v 0.2 0 0.03716469
v -0.2 0 0.03716469
v 0.2 0.4 0.03716469
v 0.2 0.4 0.4371647
v -0.5999999 0 -0.06283534
v -1.4 0.1 -0.3628353
v -0.5999999 0 -0.3128352
v -0.5999999 0.3 -0.2628353
v -0.5999999 0.4 -0.1628352
v -0.5999999 0.4 0.03716469
v -0.5999999 0 0.03716469
v -0.5999999 0.3 -0.3628353
v -0.5999999 0.4 -0.5628352
v -0.5999999 0.2 -0.3628353
v -0.5999999 0.2 -0.5628352
v -0.5999999 0.5 -0.5628352
v -0.5999999 0.1 -0.5628352
v -0.5999999 0.6 -0.8628354
v -0.5999999 0.6 -0.9628353
v -0.5999999 0.1 -0.9628353
v 0.2 0.4 -0.7628353
v 0.2 0.5 -0.5628352
v -0.2 0.4 -0.7628353
v 0.2 0.6 -0.3628353
v -0.2 0.6 -0.3628353
v -0.2 0.5 -0.5628352
v 0.8 0.25 -0.3628353
v 0.8 0.25 -0.2628353
v 0.6 0.2 -0.3628353
v 0.6 0.3 -0.3628353
v 0.7 0.3 -0.3628353
v 0.7 0.3 -0.2628353
v -0.8 0.25 -0.2628353
v -0.7 0.3 -0.2628353
v -0.7 0.3 -0.3628353
v -0.8 0.25 -0.3628353
v 0.6 0.6 -0.8628354
v 0.6 0.5 -0.5628352
v 0.2 0.6 -0.8628354
v 0.6 0.6 -0.9628353
v 0.2 0.6 -0.9628353
v 0.6 0.1 -0.5628352
v 0.6 0.1 -0.9628353
v 0.2 0.1 -0.5628352
v 0.2 0.1 -0.9628353
v 0.2 0.1 -0.7628353
v 0.6 0.3 -0.2628353
v 0.6 0 0.03716469
v 0.5292892 0.3 0.1078753
v 0.6 0.4 0.03716469
v 0.2707107 0.3 0.366454
v 0.2707107 0.1 0.366454
v 0.5292892 0.1 0.1078753
v -0.5999999 0 -0.5628352
v -0.2 0 -0.5628352
v 0.2 0 -0.7628353
v 0.2 0 -0.5628352
v 0.6 0 -0.5628352
v -0.2 0 -0.7628353
v -0.2 0.1 -0.7628353
v 0.6 0.4 -0.5628352
v 0.6 0.2 -0.5628352
v 0.6 0.4 -0.1628352
v -0.2 0.1 -0.5628352
v -0.2 0.1 -0.9628353
v 0.35 0.4 -0.1628352
v 0.35 0.4 0.03716469
v 0.2 0.4 -0.1628352
v 0.45 0.4 0.03716469
v 0.45 0.4 -0.1628352
v -0.2 0.6 -0.8628354
v -0.2 0.6 -0.9628353
v 0.2 0.5 -0.1628352
v -0.5292892 0.1 0.1078753
v -0.2707107 0.1 0.366454
v -0.2707107 0.3 0.366454
v -0.5292892 0.3 0.1078753
v -0.2 0.4 -0.1628352
v -0.2 0.5 -0.1628352
v -0.45 0.4 -0.1628352
v -0.45 0.4 0.03716469
v -0.3499999 0.4 0.03716469
v -0.3499999 0.4 -0.1628352
v -0.45 0.5 -0.1628352
v -0.5999999 0.5 -0.1628352
v 0.6 0.5 -0.1628352
v 0.45 0.5 -0.1628352
v 0.35 0.5 -0.1628352
v 0.35 0.5 -0.06283534
v 0.45 0.5 -0.06283534
v 1.4 0.1 -0.5628352
v 1.4 0.2 -0.5628352
v 0.3 0.2 -0.9628353
v 0.3 0.5 -0.9628353
v 0.5 0.5 -0.9628353
v 0.5 0.2 -0.9628353
v 0.35 0.45 0.03716469
v 0.45 0.45 0.03716469
v -0.5 0.2 -0.9628353
v -0.5 0.5 -0.9628353
v -0.3 0.5 -0.9628353
v -0.3 0.2 -0.9628353
v -0.45 0.5 -0.06283534
v -0.45 0.45 0.03716469
v -0.3499999 0.5 -0.06283534
v -0.3499999 0.45 0.03716469
v -0.3499999 0.5 -0.1628352
v -1.4 0.1 -0.5628352
v -1.4 0.2 -0.5628352
v 0.5 0.2 -0.7628353
v 0.3 0.2 -0.7628353
v 0.3 0.5 -0.7628353
v 0.5 0.5 -0.7628353
v 0.2707107 0.1 0.1078753
v 0.1 0.45 0.7371647
v -0.0999999 0.45 0.7371647
v 0.2707107 0.3 0.1078753
v -0.5 0.2 -0.7628353
v -0.3 0.2 -0.7628353
v -0.5 0.5 -0.7628353
v -0.3 0.5 -0.7628353
v -0.2707107 0.3 0.1078753
v -0.2707107 0.1 0.1078753

vn 0 1 0
vn 0.3511235 0 0.9363292
vn 0.1240347 -0.9922779 0
vn 0 -0.9876331 0.1567831
vn 0 0 1
vn 0 0.9987586 0.0498137
vn -1 0 0
vn 0 -1 0
vn 1 0 0
vn -0.3511235 0 0.9363292
vn -0.1240347 -0.9922779 0
vn 0 0.8944272 -0.4472136
vn 0 0 -1
vn 0.4472136 0.8944272 0
vn -0.4472136 0.8944272 0
vn 0 0.9486833 0.3162278
vn 0.7071068 0 0.7071068
vn -0.7071068 0 0.7071068
vn 0 0.8944272 0.4472136
vn 0 0.9630086 0.2694705
vn -0.7948387 0.5242985 0.3055201
vn 0.7948387 0.5242985 0.3055201
vn 0 0.6233262 0.781962

vt 31.49606 -14.28485
vt 31.49606 -10.34785
vt 55.11811 -14.28485
vt 23.62205 -2.47383
vt 23.62205 -10.34785
vt 22.98663 -5.297303E-16
vt 22.98663 7.874016
vt 56.62444 3.937008
vt 56.62444 7.874016
vt 2.47383 23.43963
vt 14.28485 55.18081
vt 12.31635 23.43963
vt -23.62205 -2.47383
vt -31.49606 -10.34785
vt -55.11811 -14.28485
vt -31.49606 -14.28485
vt -23.62205 -10.34785
vt 7.874016 37.9532
vt 7.874016 16.99836
vt -7.874016 37.9532
vt -7.874016 16.99836
vt 7.874016 3.285364
vt -7.874016 3.285364
vt 7.874016 6.570727
vt -7.874016 6.570727
vt 7.874016 -0.2846593
vt 7.874016 -8.1489
vt -7.874016 -0.2846593
vt -7.874016 -8.1489
vt 17.21121 1.719403E-14
vt 17.21121 15.74803
vt 37.9069 3.285364
vt 37.9069 6.570727
vt 9.317655 23.2303
vt 1.463177 23.62205
vt 1.463177 15.74803
vt 7.874016 17.21121
vt 7.874016 1.463177
vt -7.874016 17.21121
vt -7.874016 1.463177
vt -1.463177 23.62205
vt -1.463177 15.74803
vt -9.317655 23.2303
vt -17.21121 15.74803
vt -37.9069 6.570727
vt -17.21121 0
vt -37.9069 3.285364
vt -22.98663 -6.46271E-14
vt -56.62444 3.937008
vt -22.98663 7.874016
vt -56.62444 7.874016
vt -2.47383 23.43963
vt -12.31635 23.43963
vt -14.28485 55.18081
vt -10.34785 7.874016
vt -10.34785 11.81102
vt -2.47383 7.874016
vt -6.410838 15.74803
vt -2.47383 0
vt 1.463177 0
vt -14.28485 11.81102
vt -22.15887 15.74803
vt -14.28485 7.874016
vt -22.15887 7.874016
vt -22.15887 19.68504
vt -22.15887 3.937008
vt -33.96989 23.62205
vt -37.9069 23.62205
vt -37.9069 3.937008
vt -7.874016 -19.8195
vt -7.874016 -11.01608
vt 7.874016 -19.8195
vt -7.874016 -2.212661
vt 7.874016 -2.212661
vt 7.874016 -11.01608
vt 14.28485 9.84252
vt 14.28485 7.874016
vt 10.34785 9.84252
vt 10.34785 7.874016
vt -23.62205 7.874016
vt -31.49606 7.874016
vt -23.62205 11.81102
vt -31.49606 9.84252
vt -27.55906 11.81102
vt 14.28485 -23.76923
vt 10.34785 -23.76923
vt 14.28485 -19.36752
vt 10.34785 -19.36752
vt -14.28485 -19.36752
vt -10.34785 -19.36752
vt -14.28485 -23.76923
vt -10.34785 -23.76923
vt 23.62205 39.69662
vt 23.62205 27.24671
vt 7.874016 39.69662
vt 7.874016 27.24671
vt -23.62205 -37.9069
vt -23.62205 -33.96989
vt -7.874016 -37.9069
vt -7.874016 -33.96989
vt 23.62205 -22.15887
vt 23.62205 -37.9069
vt 7.874016 -22.15887
vt 7.874016 -37.9069
vt 7.874016 -30.03288
vt 23.62205 -14.28485
vt 27.55906 -14.28485
vt 27.55906 -10.34785
vt -27.55906 -14.28485
vt -27.55906 -10.34785
vt -23.62205 -14.28485
vt 31.49606 7.874016
vt 23.62205 7.874016
vt 31.49606 9.84252
vt 23.62205 11.81102
vt 27.55906 11.81102
vt 15.66869 0
vt 11.73168 11.81102
vt 15.66869 15.74803
vt -6.602393 15.74803
vt -2.665385 11.81102
vt -2.665385 3.937008
vt 11.73168 3.937008
vt -6.602393 0
vt -30.03288 3.937008
vt -30.03288 15.74803
vt -14.28485 9.84252
vt -10.34785 9.84252
vt -23.62205 1.463177
vt -23.62205 -22.15887
vt -7.874016 -22.15887
vt 23.62205 -12.31635
vt 23.62205 1.463177
vt -23.62205 -12.31635
vt -7.874016 -30.03288
vt -7.874016 -14.28485
vt 7.874016 -14.28485
vt 7.874016 0
vt -7.874016 0
vt 7.874016 3.937008
vt -7.874016 3.937008
vt 7.874016 15.74803
vt -7.874016 15.74803
vt 37.9069 23.62205
vt 37.9069 3.937008
vt 33.96989 23.62205
vt 22.15887 3.937008
vt 22.15887 19.68504
vt 22.15887 15.74803
vt 22.15887 7.874016
vt 6.410838 15.74803
vt 14.28485 11.81102
vt 10.34785 11.81102
vt 2.47383 7.874016
vt 2.47383 0
vt -1.463177 0
vt -23.62205 0
vt -23.62205 3.937008
vt 30.03288 3.937008
vt 30.03288 0
vt 22.15887 0
vt -13.77953 -6.410838
vt -13.77953 1.463177
vt -7.874016 -6.410838
vt -17.71654 1.463177
vt -17.71654 -6.410838
vt -23.62205 -6.410838
vt 30.03288 15.74803
vt 7.874016 -33.96989
vt 23.62205 -33.96989
vt 6.410838 19.68504
vt 14.28485 23.62205
vt -7.874016 39.69662
vt -7.874016 27.24671
vt -23.62205 39.69662
vt -23.62205 27.24671
vt -30.03288 5.684342E-14
vt -22.15887 5.684342E-14
vt -15.66869 15.74803
vt -11.73168 3.937008
vt -15.66869 0
vt 6.602393 0
vt 2.665385 3.937008
vt 2.665385 11.81102
vt -11.73168 11.81102
vt 6.602393 15.74803
vt 23.62205 0
vt 23.62205 3.937008
vt -6.410838 19.68504
vt -14.28485 23.62205
vt 17.71654 -6.410838
vt 17.71654 1.463177
vt 23.62205 -6.410838
vt 13.77953 1.463177
vt 13.77953 -6.410838
vt 7.874016 -6.410838
vt -17.71654 15.74803
vt -23.62205 15.74803
vt -17.71654 19.68504
vt -23.62205 19.68504
vt -13.77953 -2.47383
vt -17.71654 -2.47383
vt 22.15887 55.18081
vt 22.15887 23.43963
vt -55.11811 -22.15887
vt -55.11811 3.937008
vt -55.11811 7.874016
vt -11.81102 7.874016
vt -7.874016 23.62205
vt -11.81102 19.68504
vt -19.68504 19.68504
vt -19.68504 7.874016
vt -23.62205 23.62205
vt 14.28485 3.937008
vt -2.47383 19.68504
vt 1.463177 17.71654
vt 17.71654 15.74803
vt 13.77953 15.74803
vt 17.71654 17.71654
vt 13.77953 17.71654
vt 2.47383 19.68504
vt -1.463177 17.71654
vt 17.71654 11.01608
vt 17.71654 6.61437
vt 13.77953 11.01608
vt 13.77953 6.61437
vt 23.62205 15.74803
vt 23.62205 19.68504
vt 17.71654 19.68504
vt 13.77953 19.68504
vt 7.874016 19.68504
vt 19.68504 7.874016
vt 23.62205 23.62205
vt 19.68504 19.68504
vt 11.81102 19.68504
vt 11.81102 7.874016
vt 7.874016 23.62205
vt -13.77953 11.01608
vt -13.77953 6.61437
vt -17.71654 11.01608
vt -17.71654 6.61437
vt 13.77953 -2.47383
vt 17.71654 -2.47383
vt -13.77953 15.74803
vt -13.77953 17.71654
vt -17.71654 17.71654
vt -7.874016 19.68504
vt -13.77953 19.68504
vt -14.28485 3.937008
vt 55.11811 3.937008
vt 55.11811 7.874016
vt 55.11811 -22.15887
vt -22.15887 23.43963
vt -22.15887 55.18081
vt -19.68504 -37.9069
vt -19.68504 -30.03288
vt -11.81102 -37.9069
vt -11.81102 -30.03288
vt 37.9069 19.68504
vt 37.9069 7.874016
vt 30.03288 19.68504
vt 30.03288 7.874016
vt 19.68504 -30.03288
vt 19.68504 -37.9069
vt 11.81102 -30.03288
vt 11.81102 -37.9069
vt -37.9069 7.874016
vt -37.9069 19.68504
vt -30.03288 7.874016
vt -30.03288 19.68504
vt -10.6579 4.247062
vt -20.83816 4.247062
vt -10.6579 14.42732
vt 7.874016 -2.7131
vt 3.937008 -23.17458
vt -7.874016 -2.7131
vt -3.937008 -23.17458
vt 10.6579 14.42732
vt 20.83816 4.247062
vt 10.6579 4.247062
vt 5.872178 14.17517
vt 25.67736 7.700081
vt 32.55793 -5.389004
vt -25.67736 7.700081
vt -5.872178 14.17517
vt -32.55793 -5.389004
vt -4.247062 11.81102
vt -4.247062 3.937008
vt -14.42732 11.81102
vt -14.42732 3.937008
vt 20.83816 3.937008
vt 10.6579 3.937008
vt 20.83816 11.81102
vt 10.6579 11.81102
vt 7.874016 -18.4903
vt -7.874016 -18.4903
vt 3.937008 -4.236658
vt -3.937008 -4.236658
vt 4.247062 3.937008
vt 4.247062 11.81102
vt 14.42732 3.937008
vt 14.42732 11.81102
vt -10.6579 3.937008
vt -20.83816 3.937008
vt -10.6579 11.81102
vt -20.83816 11.81102

usemtl metalRed

f 3/3/1 2/2/1 1/1/1
f 4/4/1 2/2/1 3/3/1
f 2/2/1 4/4/1 5/5/1
f 8/8/2 7/7/2 6/6/2
f 7/7/2 8/8/2 9/9/2
f 10/12/3 8/11/3 6/10/3
f 9/15/1 11/14/1 7/13/1
f 11/14/1 9/15/1 12/16/1
f 7/13/1 11/14/1 13/17/1
f 16/20/4 15/19/4 14/18/4
f 15/19/4 16/20/4 17/21/4
f 18/24/5 16/23/5 14/22/5
f 16/23/5 18/24/5 19/25/5
f 22/28/6 21/27/6 20/26/6
f 21/27/6 22/28/6 23/29/6
f 16/32/7 24/31/7 17/30/7
f 19/33/7 24/31/7 16/32/7
f 23/34/7 24/31/7 19/33/7
f 22/35/7 24/31/7 23/34/7
f 24/31/7 22/35/7 25/36/7
f 17/39/8 26/38/8 15/37/8
f 26/38/8 17/39/8 27/40/8
f 21/43/9 28/42/9 20/41/9
f 28/42/9 21/43/9 29/44/9
f 29/44/9 21/43/9 18/45/9
f 29/44/9 18/45/9 15/46/9
f 15/46/9 18/45/9 14/47/9
f 4/50/10 31/49/10 30/48/10
f 31/49/10 4/50/10 3/51/10
f 31/54/11 32/53/11 30/52/11

usemtl metalDark

f 4/57/7 33/56/7 5/55/7
f 33/56/7 4/57/7 34/58/7
f 34/58/7 4/57/7 35/36/7
f 35/36/7 4/57/7 30/59/7
f 35/36/7 30/59/7 36/60/7
f 34/58/7 37/61/7 33/56/7
f 38/62/7 37/61/7 34/58/7
f 38/62/7 39/63/7 37/61/7
f 39/63/7 38/62/7 40/64/7
f 41/65/7 40/64/7 38/62/7
f 41/65/7 42/66/7 40/64/7
f 43/67/7 42/66/7 41/65/7
f 44/68/7 42/66/7 43/67/7
f 42/66/7 44/68/7 45/69/7
f 48/72/12 47/71/12 46/70/12
f 47/71/12 48/72/12 49/73/12
f 49/73/12 48/72/12 50/74/12
f 50/74/12 48/72/12 51/75/12
f 53/78/9 12/77/9 52/76/9
f 12/77/9 53/78/9 11/79/9
f 55/82/13 12/81/13 54/80/13
f 12/81/13 55/82/13 52/83/13
f 52/83/13 55/82/13 56/84/13
f 56/87/14 53/86/14 52/85/14
f 53/86/14 56/87/14 57/88/14
f 33/82/5 2/81/5 5/80/5
f 2/81/5 33/82/5 58/83/5
f 58/83/5 33/82/5 59/84/5
f 61/91/15 59/90/15 60/89/15
f 59/90/15 61/91/15 58/92/15
f 64/95/16 63/94/16 62/93/16
f 63/94/16 64/95/16 47/96/16
f 66/99/1 62/98/1 65/97/1
f 62/98/1 66/99/1 64/100/1
f 69/103/8 68/102/8 67/101/8
f 68/102/8 69/103/8 70/104/8
f 70/104/8 69/103/8 71/105/8
f 60/107/1 33/5/1 37/106/1
f 33/5/1 60/107/1 59/108/1
f 55/111/1 57/110/1 56/109/1
f 57/110/1 55/111/1 72/17/1
f 53/114/5 13/113/5 11/112/5
f 13/113/5 53/114/5 72/115/5
f 72/115/5 53/114/5 57/116/5
f 75/119/17 74/118/17 73/117/17
f 74/118/17 75/119/17 29/120/17
f 74/118/17 29/120/17 76/121/17
f 76/121/17 29/120/17 77/122/17
f 78/123/17 73/117/17 74/118/17
f 73/117/17 78/123/17 15/124/17
f 15/124/17 78/123/17 77/122/17
f 15/124/17 77/122/17 29/120/17
f 71/125/7 66/68/7 70/69/7
f 66/68/7 71/125/7 64/67/7
f 64/67/7 71/125/7 46/126/7
f 64/67/7 46/126/7 47/65/7
f 2/55/7 61/127/7 1/63/7
f 61/127/7 2/55/7 58/128/7
f 36/129/8 27/40/8 17/39/8
f 79/130/8 27/40/8 36/129/8
f 80/131/8 27/40/8 79/130/8
f 81/105/8 27/40/8 80/131/8
f 82/103/8 27/40/8 81/105/8
f 82/103/8 26/38/8 27/40/8
f 82/103/8 15/37/8 26/38/8
f 83/101/8 15/37/8 82/103/8
f 10/132/8 15/37/8 83/101/8
f 6/4/8 15/37/8 10/132/8
f 15/37/8 6/4/8 73/133/8
f 79/130/8 36/129/8 30/13/8
f 79/130/8 30/13/8 32/134/8
f 84/135/8 81/105/8 80/131/8
f 50/137/1 20/40/1 49/136/1
f 20/40/1 50/137/1 22/38/1
f 85/140/13 81/139/13 84/138/13
f 81/139/13 85/140/13 71/141/13
f 71/141/13 85/140/13 48/142/13
f 71/141/13 48/142/13 46/143/13
f 62/146/9 68/145/9 65/144/9
f 68/145/9 62/146/9 67/147/9
f 67/147/9 62/146/9 63/148/9
f 67/147/9 63/148/9 86/149/9
f 67/147/9 86/149/9 87/150/9
f 88/151/9 87/150/9 86/149/9
f 87/150/9 88/151/9 55/152/9
f 55/152/9 88/151/9 72/153/9
f 72/153/9 88/151/9 13/79/9
f 13/79/9 88/151/9 7/154/9
f 7/154/9 88/151/9 75/42/9
f 7/154/9 75/42/9 6/155/9
f 6/155/9 75/42/9 73/156/9
f 54/77/9 87/150/9 55/152/9
f 69/141/13 83/157/13 82/139/13
f 83/157/13 69/141/13 67/158/13
f 69/147/9 81/160/9 71/159/9
f 81/160/9 69/147/9 82/161/9
f 42/130/8 85/135/8 89/131/8
f 85/135/8 42/130/8 90/99/8
f 90/99/8 42/130/8 45/97/8
f 93/164/1 92/163/1 91/162/1
f 29/39/1 92/163/1 93/164/1
f 29/39/1 94/165/1 92/163/1
f 75/129/1 94/165/1 29/39/1
f 75/129/1 95/166/1 94/165/1
f 95/166/1 75/129/1 88/167/1
f 29/39/1 93/164/1 28/40/1
f 61/114/13 39/113/13 1/112/13
f 39/113/13 61/114/13 37/115/13
f 37/115/13 61/114/13 60/116/13
f 51/148/9 48/168/9 96/146/9
f 85/159/9 96/146/9 48/168/9
f 90/145/9 96/146/9 85/159/9
f 96/146/9 90/145/9 97/144/9
f 44/102/1 96/169/1 97/104/1
f 96/169/1 44/102/1 43/170/1
f 49/172/9 98/171/9 47/148/9
f 98/171/9 49/172/9 20/41/9
f 98/171/9 20/41/9 93/151/9
f 93/151/9 20/41/9 28/42/9
f 43/175/16 51/174/16 96/173/16
f 51/174/16 43/175/16 41/176/16
f 80/178/7 85/125/7 84/177/7
f 85/125/7 80/178/7 89/66/7
f 36/181/18 99/180/18 35/179/18
f 99/180/18 36/181/18 17/182/18
f 99/180/18 17/182/18 100/183/18
f 100/183/18 17/182/18 101/184/18
f 102/185/18 35/179/18 99/180/18
f 35/179/18 102/185/18 24/186/18
f 24/186/18 102/185/18 101/184/18
f 24/186/18 101/184/18 17/182/18
f 42/188/13 80/138/13 79/187/13
f 80/138/13 42/188/13 89/140/13
f 25/36/7 104/189/7 103/58/7
f 22/35/7 104/189/7 25/36/7
f 50/190/7 104/189/7 22/35/7
f 104/189/7 50/190/7 51/65/7
f 34/193/1 106/192/1 105/191/1
f 35/133/1 106/192/1 34/193/1
f 35/133/1 107/194/1 106/192/1
f 24/37/1 107/194/1 35/133/1
f 24/37/1 108/195/1 107/194/1
f 25/38/1 108/195/1 24/37/1
f 108/195/1 25/38/1 103/196/1

usemtl metal

f 109/199/5 34/198/5 105/197/5
f 34/198/5 109/199/5 110/200/5
f 47/131/1 111/167/1 63/130/1
f 111/167/1 47/131/1 112/166/1
f 112/166/1 47/131/1 113/162/1
f 112/166/1 113/162/1 114/201/1
f 113/162/1 47/131/1 98/164/1
f 114/201/1 115/202/1 112/166/1
f 111/171/9 86/149/9 63/148/9
f 86/149/9 111/171/9 88/151/9
f 10/12/3 116/203/3 8/11/3
f 116/203/3 10/12/3 83/204/3
f 87/130/1 9/15/1 117/205/1
f 9/15/1 87/130/1 12/16/1
f 12/16/1 87/130/1 54/111/1
f 67/158/13 116/206/13 83/157/13
f 116/206/13 67/158/13 87/80/13
f 116/206/13 87/80/13 117/207/13
f 70/141/13 118/208/13 68/158/13
f 118/208/13 70/141/13 66/209/13
f 118/208/13 66/209/13 119/210/13
f 119/210/13 66/209/13 120/211/13
f 121/212/13 68/158/13 118/208/13
f 68/158/13 121/212/13 65/213/13
f 65/213/13 121/212/13 120/211/13
f 65/213/13 120/211/13 66/209/13
f 9/77/9 116/147/9 117/150/9
f 116/147/9 9/77/9 8/214/9
f 92/36/7 113/189/7 91/58/7
f 113/189/7 92/36/7 114/215/7
f 114/215/7 92/36/7 122/216/7
f 123/219/5 92/218/5 94/217/5
f 92/218/5 123/219/5 122/220/5
f 115/221/9 95/151/9 112/171/9
f 95/151/9 115/221/9 94/42/9
f 94/42/9 115/221/9 123/222/9
f 114/225/19 123/224/19 115/223/19
f 123/224/19 114/225/19 122/226/19
f 111/228/5 95/217/5 88/227/5
f 95/217/5 111/228/5 112/229/5
f 113/230/5 93/142/5 91/218/5
f 93/142/5 113/230/5 98/231/5
f 45/188/13 124/232/13 90/140/13
f 124/232/13 45/188/13 44/233/13
f 124/232/13 44/233/13 125/234/13
f 125/234/13 44/233/13 126/235/13
f 127/236/13 90/140/13 124/232/13
f 90/140/13 127/236/13 97/237/13
f 97/237/13 127/236/13 126/235/13
f 97/237/13 126/235/13 44/233/13
f 34/58/7 41/65/7 38/62/7
f 41/65/7 34/58/7 110/189/7
f 106/36/7 109/189/7 105/58/7
f 109/189/7 106/36/7 128/215/7
f 128/215/7 106/36/7 129/216/7
f 128/240/19 131/239/19 130/238/19
f 131/239/19 128/240/19 129/241/19
f 41/101/1 104/196/1 51/103/1
f 104/196/1 41/101/1 132/195/1
f 132/195/1 41/101/1 130/242/1
f 130/242/1 41/101/1 109/191/1
f 109/191/1 41/101/1 110/193/1
f 128/243/1 130/242/1 109/191/1
f 131/245/5 106/197/5 107/244/5
f 106/197/5 131/245/5 129/246/5
f 132/171/9 107/42/9 108/151/9
f 107/42/9 132/171/9 130/221/9
f 107/42/9 130/221/9 131/222/9
f 104/247/5 108/244/5 103/143/5
f 108/244/5 104/247/5 132/248/5
f 31/249/7 134/64/7 133/66/7
f 134/64/7 31/249/7 3/63/7
f 133/250/13 42/188/13 79/187/13
f 42/188/13 133/250/13 134/251/13
f 42/188/13 134/251/13 40/113/13
f 134/252/1 39/106/1 40/101/1
f 39/106/1 134/252/1 1/1/1
f 1/1/1 134/252/1 3/3/1
f 31/54/11 79/253/11 32/53/11
f 79/253/11 31/54/11 133/254/11

usemtl dark

f 118/257/1 135/256/1 121/255/1
f 135/256/1 118/257/1 136/258/1
f 137/210/13 135/212/13 136/208/13
f 135/212/13 137/210/13 138/211/13
f 137/261/9 118/260/9 119/259/9
f 118/260/9 137/261/9 136/262/9
f 137/265/8 120/264/8 138/263/8
f 120/264/8 137/265/8 119/266/8
f 135/269/7 120/268/7 121/267/7
f 120/268/7 135/269/7 138/270/7
f 77/273/1 78/272/1 139/271/1
f 23/276/20 140/275/20 21/274/20
f 140/275/20 23/276/20 141/277/20
f 142/280/8 74/279/8 76/278/8
f 19/283/21 141/282/21 23/281/21
f 18/286/22 21/285/22 140/284/22
f 76/289/9 139/288/9 142/287/9
f 139/288/9 76/289/9 77/290/9
f 74/293/5 139/292/5 78/291/5
f 139/292/5 74/293/5 142/294/5
f 140/297/23 19/296/23 18/295/23
f 19/296/23 140/297/23 141/298/23
f 145/234/13 144/236/13 143/232/13
f 144/236/13 145/234/13 146/235/13
f 145/261/9 124/260/9 125/259/9
f 124/260/9 145/261/9 143/262/9
f 145/256/8 126/257/8 146/258/8
f 126/257/8 145/256/8 125/255/8
f 102/272/8 147/271/8 101/273/8
f 100/301/7 147/300/7 148/299/7
f 147/300/7 100/301/7 101/302/7
f 144/269/7 126/268/7 127/267/7
f 126/268/7 144/269/7 146/270/7
f 124/264/1 144/265/1 127/266/1
f 144/265/1 124/264/1 143/263/1
f 147/305/5 99/304/5 148/303/5
f 99/304/5 147/305/5 102/306/5
f 99/279/1 100/278/1 148/280/1

